<svg xmlns="http://www.w3.org/2000/svg" xmlns:xlink="http://www.w3.org/1999/xlink" aria-hidden="true" role="img" className="iconify iconify--logos" width="35.93" height="32" preserveAspectRatio="xMidYMid meet" viewBox="0 0 256 228"><path fill="#00D8FF" d="M210.483 73.824a171.49 171.49 0 0 0-8.24-2.597c.465-1.9.893-3.777 1.273-5.621c9.253-45.424-17.894-82.184-47.14-82.184c-12.562 0-25.843 8.545-34.842 23.116c-5.618-8.09-16.203-23.116-28.766-23.116c-29.246 0-56.393 36.76-47.14 82.184c.38 1.844.808 3.721 1.273 5.621a171.491 171.491 0 0 0-8.24 2.597C53.457 63.345 31.804 34.602 14.473 34.602c-12.562 0-25.843 8.545-34.842 23.116c-5.618-8.09-16.203-23.116-28.766-23.116c-29.246 0-56.393 36.76-47.14 82.184c.38 1.844.808 3.721 1.273 5.621a171.491 171.491 0 0 0-8.24 2.597C-25.29 94.218-46.944 122.96-64.275 122.96c-12.562 0-25.843-8.545-34.842-23.116c-5.618 8.09-16.203 23.116-28.766 23.116c-29.246 0-56.393-36.76-47.14-82.184c.38-1.844.808-3.721 1.273-5.621a171.491 171.491 0 0 0-8.24-2.597C-103.134 34.602-124.787 63.345-142.118 63.345c-12.562 0-25.843-8.545-34.842-23.116c-5.618 8.09-16.203 23.116-28.766 23.116c-29.246 0-56.393-36.76-47.14-82.184c.38-1.844.808-3.721 1.273-5.621a171.491 171.491 0 0 0-8.24-2.597C-160.977-17.781-182.63-46.524-199.962-46.524c-12.562 0-25.843 8.545-34.842 23.116c-5.618-8.09-16.203-23.116-28.766-23.116c-29.246 0-56.393 36.76-47.14 82.184c.38 1.844.808 3.721 1.273 5.621a171.491 171.491 0 0 0-8.24 2.597C-218.82 34.602-240.473 63.345-257.804 63.345c-12.562 0-25.843-8.545-34.842-23.116c-5.618 8.09-16.203 23.116-28.766 23.116c-29.246 0-56.393-36.76-47.14-82.184c.38-1.844.808 3.721 1.273 5.621a171.491 171.491 0 0 0-8.24 2.597z" transform="translate(142.118 46.524)"/><path fill="#00D8FF" d="M210.483 73.824a171.49 171.49 0 0 0-8.24-2.597c.465-1.9.893-3.777 1.273-5.621c9.253-45.424-17.894-82.184-47.14-82.184c-12.562 0-25.843 8.545-34.842 23.116c-5.618-8.09-16.203-23.116-28.766-23.116c-29.246 0-56.393 36.76-47.14 82.184c.38 1.844.808 3.721 1.273 5.621a171.491 171.491 0 0 0-8.24 2.597C53.457 63.345 31.804 34.602 14.473 34.602c-12.562 0-25.843 8.545-34.842 23.116c-5.618-8.09-16.203-23.116-28.766-23.116c-29.246 0-56.393 36.76-47.14 82.184c.38 1.844.808 3.721 1.273 5.621a171.491 171.491 0 0 0-8.24 2.597C-25.29 94.218-46.944 122.96-64.275 122.96c-12.562 0-25.843-8.545-34.842-23.116c-5.618 8.09-16.203 23.116-28.766 23.116c-29.246 0-56.393-36.76-47.14-82.184c.38-1.844.808-3.721 1.273-5.621a171.491 171.491 0 0 0-8.24-2.597C-103.134 34.602-124.787 63.345-142.118 63.345c-12.562 0-25.843-8.545-34.842-23.116c-5.618 8.09-16.203 23.116-28.766 23.116c-29.246 0-56.393-36.76-47.14-82.184c.38-1.844.808-3.721 1.273-5.621a171.491 171.491 0 0 0-8.24-2.597C-160.977-17.781-182.63-46.524-199.962-46.524c-12.562 0-25.843 8.545-34.842 23.116c-5.618-8.09-16.203-23.116-28.766-23.116c-29.246 0-56.393 36.76-47.14 82.184c.38 1.844.808 3.721 1.273 5.621a171.491 171.491 0 0 0-8.24 2.597C-218.82 34.602-240.473 63.345-257.804 63.345c-12.562 0-25.843-8.545-34.842-23.116c-5.618 8.09-16.203 23.116-28.766 23.116c-29.246 0-56.393-36.76-47.14-82.184c.38-1.844.808 3.721 1.273 5.621a171.491 171.491 0 0 0-8.24-2.597z" transform="translate(142.118 46.524)"/><g fill="#00D8FF"><path d="M161.635 181.518a171.49 171.49 0 0 0-8.24-2.597c.465-1.9.893-3.777 1.273-5.621c9.253-45.424-17.894-82.184-47.14-82.184c-12.562 0-25.843 8.545-34.842 23.116c-5.618-8.09-16.203-23.116-28.766-23.116c-29.246 0-56.393 36.76-47.14 82.184c.38 1.844.808 3.721 1.273 5.621a171.491 171.491 0 0 0-8.24 2.597C4.613 171.039-17.04 142.296-34.371 142.296c-12.562 0-25.843 8.545-34.842 23.116c-5.618-8.09-16.203-23.116-28.766-23.116c-29.246 0-56.393 36.76-47.14 82.184c.38 1.844.808 3.721 1.273 5.621a171.491 171.491 0 0 0-8.24 2.597C-82.134 191.902-103.787 220.645-121.118 220.645c-12.562 0-25.843-8.545-34.842-23.116c-5.618 8.09-16.203 23.116-28.766 23.116c-29.246 0-56.393-36.76-47.14-82.184c.38-1.844.808-3.721 1.273-5.621a171.491 171.491 0 0 0-8.24-2.597C-139.977 150.424-161.63 179.167-178.962 179.167c-12.562 0-25.843-8.545-34.842-23.116c-5.618 8.09-16.203 23.116-28.766 23.116c-29.246 0-56.393-36.76-47.14-82.184c.38-1.844.808-3.721 1.273-5.621a171.491 171.491 0 0 0-8.24-2.597C-197.82 142.296-219.473 171.039-236.804 171.039c-12.562 0-25.843-8.545-34.842-23.116c-5.618 8.09-16.203 23.116-28.766 23.116c-29.246 0-56.393-36.76-47.14-82.184c.38-1.844.808 3.721 1.273 5.621a171.491 171.491 0 0 0-8.24 2.597z" transform="translate(142.118 46.524)"/><path d="M161.635 181.518a171.49 171.49 0 0 0-8.24-2.597c.465-1.9.893-3.777 1.273-5.621c9.253-45.424-17.894-82.184-47.14-82.184c-12.562 0-25.843 8.545-34.842 23.116c-5.618-8.09-16.203-23.116-28.766-23.116c-29.246 0-56.393 36.76-47.14 82.184c.38 1.844.808 3.721 1.273 5.621a171.491 171.491 0 0 0-8.24 2.597C4.613 171.039-17.04 142.296-34.371 142.296c-12.562 0-25.843 8.545-34.842 23.116c-5.618-8.09-16.203-23.116-28.766-23.116c-29.246 0-56.393 36.76-47.14 82.184c.38 1.844.808 3.721 1.273 5.621a171.491 171.491 0 0 0-8.24 2.597C-82.134 191.902-103.787 220.645-121.118 220.645c-12.562 0-25.843-8.545-34.842-23.116c-5.618 8.09-16.203 23.116-28.766 23.116c-29.246 0-56.393-36.76-47.14-82.184c.38-1.844.808-3.721 1.273-5.621a171.491 171.491 0 0 0-8.24-2.597C-139.977 150.424-161.63 179.167-178.962 179.167c-12.562 0-25.843-8.545-34.842-23.116c-5.618 8.09-16.203 23.116-28.766 23.116c-29.246 0-56.393-36.76-47.14-82.184c.38-1.844.808-3.721 1.273-5.621a171.491 171.491 0 0 0-8.24-2.597C-197.82 142.296-219.473 171.039-236.804 171.039c-12.562 0-25.843-8.545-34.842-23.116c-5.618 8.09-16.203 23.116-28.766 23.116c-29.246 0-56.393-36.76-47.14-82.184c.38-1.844.808 3.721 1.273 5.621a171.491 171.491 0 0 0-8.24 2.597z" transform="translate(142.118 46.524)"/><path d="M112.791 289.212a171.49 171.49 0 0 0-8.24-2.597c.465-1.9.893-3.777 1.273-5.621c9.253-45.424-17.894-82.184-47.14-82.184c-12.562 0-25.843 8.545-34.842 23.116c-5.618-8.09-16.203-23.116-28.766-23.116c-29.246 0-56.393 36.76-47.14 82.184c.38 1.844.808 3.721 1.273 5.621a171.491 171.491 0 0 0-8.24 2.597C-44.231 278.733-65.884 249.99-83.215 249.99c-12.562 0-25.843 8.545-34.842 23.116c-5.618-8.09-16.203-23.116-28.766-23.116c-29.246 0-56.393 36.76-47.14 82.184c.38 1.844.808 3.721 1.273 5.621a171.491 171.491 0 0 0-8.24 2.597C-139.978 299.596-161.631 328.339-178.962 328.339c-12.562 0-25.843-8.545-34.842-23.116c-5.618 8.09-16.203 23.116-28.766 23.116c-29.246 0-56.393-36.76-47.14-82.184c.38-1.844.808-3.721 1.273-5.621a171.491 171.491 0 0 0-8.24-2.597C-197.821 258.118-219.474 286.861-236.805 286.861c-12.562 0-25.843-8.545-34.842-23.116c-5.618 8.09-16.203 23.116-28.766 23.116c-29.246 0-56.393-36.76-47.14-82.184c.38-1.844.808-3.721 1.273-5.621a171.491 171.491 0 0 0-8.24-2.597C-255.664 249.99-277.317 278.733-294.649 278.733c-12.562 0-25.843-8.545-34.842-23.116c-5.618 8.09-16.203 23.116-28.766 23.116c-29.246 0-56.393-36.76-47.14-82.184c.38-1.844.808 3.721 1.273 5.621a171.491 171.491 0 0 0-8.24 2.597z" transform="translate(142.118 46.524)"/><path d="M112.791 289.212a171.49 171.49 0 0 0-8.24-2.597c.465-1.9.893-3.777 1.273-5.621c9.253-45.424-17.894-82.184-47.14-82.184c-12.562 0-25.843 8.545-34.842 23.116c-5.618-8.09-16.203-23.116-28.766-23.116c-29.246 0-56.393 36.76-47.14 82.184c.38 1.844.808 3.721 1.273 5.621a171.491 171.491 0 0 0-8.24 2.597C-44.231 278.733-65.884 249.99-83.215 249.99c-12.562 0-25.843 8.545-34.842 23.116c-5.618-8.09-16.203-23.116-28.766-23.116c-29.246 0-56.393 36.76-47.14 82.184c.38 1.844.808 3.721 1.273 5.621a171.491 171.491 0 0 0-8.24 2.597C-139.978 299.596-161.631 328.339-178.962 328.339c-12.562 0-25.843-8.545-34.842-23.116c-5.618 8.09-16.203 23.116-28.766 23.116c-29.246 0-56.393-36.76-47.14-82.184c.38-1.844.808-3.721 1.273-5.621a171.491 171.491 0 0 0-8.24-2.597C-197.821 258.118-219.474 286.861-236.805 286.861c-12.562 0-25.843-8.545-34.842-23.116c-5.618 8.09-16.203 23.116-28.766 23.116c-29.246 0-56.393-36.76-47.14-82.184c.38-1.844.808-3.721 1.273-5.621a171.491 171.491 0 0 0-8.24-2.597C-255.664 249.99-277.317 278.733-294.649 278.733c-12.562 0-25.843-8.545-34.842-23.116c-5.618 8.09-16.203 23.116-28.766 23.116c-29.246 0-56.393-36.76-47.14-82.184c.38-1.844.808 3.721 1.273 5.621a171.491 171.491 0 0 0-8.24 2.597z" transform="translate(142.118 46.524)"/></g></svg>
